<svg xmlns="http://www.w3.org/2000/svg" viewBox="0 0 25 25.25"><defs><style>.cls-1{fill:#6a6a6a;}</style></defs><title>Ресурс 5</title><g id="Слой_2" data-name="Слой 2"><g id="Слой_1-2" data-name="Слой 1"><path class="cls-1" d="M15.66,16.83a6.87,6.87,0,0,0,0-2.09l1.74-1.37A1.05,1.05,0,0,0,17.66,12l-1.12-1.94a1,1,0,0,0-1.31-.45l-2.05.82a6.73,6.73,0,0,0-1.81-1l-.31-2.18a1.05,1.05,0,0,0-1-.91H7.78a1.05,1.05,0,0,0-1,.91L6.43,9.41a6.55,6.55,0,0,0-1.81,1L2.57,9.63a1.06,1.06,0,0,0-1.31.45L.14,12A1,1,0,0,0,.4,13.37l1.74,1.36a7.31,7.31,0,0,0-.08,1,7.42,7.42,0,0,0,.08,1L.4,18.19a1.05,1.05,0,0,0-.26,1.35l1.12,1.95a1.07,1.07,0,0,0,1.31.45l2-.83a6.62,6.62,0,0,0,1.81,1.05l.32,2.19a1.05,1.05,0,0,0,1,.9H10a1.05,1.05,0,0,0,1-.9l.31-2.19a6.58,6.58,0,0,0,1.81-1.05l2.05.83a1.07,1.07,0,0,0,1.31-.45l1.12-1.95a1.05,1.05,0,0,0-.26-1.35ZM8.9,19.46a3.68,3.68,0,1,1,3.68-3.68A3.68,3.68,0,0,1,8.9,19.46Z"/><path class="cls-1" d="M23.84,5.75a3.87,3.87,0,0,0,.05-.49,3.87,3.87,0,0,0-.05-.49l.95-.72a.53.53,0,0,0,.14-.68l-.85-1.48a.53.53,0,0,0-.66-.22l-1.09.46a4.15,4.15,0,0,0-.86-.51L21.32.46A.53.53,0,0,0,20.8,0H19.1a.52.52,0,0,0-.52.46l-.15,1.16a3.9,3.9,0,0,0-.86.51l-1.09-.46a.53.53,0,0,0-.66.22L15,3.37a.51.51,0,0,0,.13.68l1,.72a3.87,3.87,0,0,0-.05.49,3.87,3.87,0,0,0,.05.49l-1,.72a.51.51,0,0,0-.13.68l.85,1.48a.53.53,0,0,0,.66.22l1.09-.46a3.9,3.9,0,0,0,.86.51l.14,1.16a.54.54,0,0,0,.53.46h1.7a.53.53,0,0,0,.52-.46l.14-1.16a4,4,0,0,0,.87-.51l1.09.46a.53.53,0,0,0,.66-.22l.85-1.48a.53.53,0,0,0-.14-.68ZM20,7.36a2.1,2.1,0,1,1,2.1-2.1A2.1,2.1,0,0,1,20,7.36Z"/></g></g></svg>