<svg xmlns="http://www.w3.org/2000/svg" viewBox="0 0 25 21.21"><defs><style>.cls-1{fill:#f24130;}</style></defs><title>Ресурс 1</title><g id="Слой_2" data-name="Слой 2"><g id="Слой_1-2" data-name="Слой 1"><path class="cls-1" d="M21.39,11.45H19.46a5.2,5.2,0,0,1,.3,1.73v7.31a2.18,2.18,0,0,1-.12.72h3.19A2.17,2.17,0,0,0,25,19v-4A3.61,3.61,0,0,0,21.39,11.45Z"/><path class="cls-1" d="M5.24,13.18a5.2,5.2,0,0,1,.3-1.73H3.61A3.61,3.61,0,0,0,0,15.06v4a2.17,2.17,0,0,0,2.17,2.17H5.36a2.18,2.18,0,0,1-.12-.72Z"/><path class="cls-1" d="M14.71,9.57H10.29a3.61,3.61,0,0,0-3.61,3.61v7.31a.72.72,0,0,0,.72.72H17.6a.72.72,0,0,0,.72-.72V13.18A3.61,3.61,0,0,0,14.71,9.57Z"/><path class="cls-1" d="M12.5,0a4.34,4.34,0,1,0,4.34,4.34A4.35,4.35,0,0,0,12.5,0Z"/><path class="cls-1" d="M4.88,4.05A3.24,3.24,0,1,0,7.74,8.82a3.18,3.18,0,0,0,.38-1.53A3.24,3.24,0,0,0,4.88,4.05Z"/><path class="cls-1" d="M20.12,4.05a3.24,3.24,0,0,0-3.24,3.24,3.18,3.18,0,0,0,.38,1.53,3.25,3.25,0,1,0,2.86-4.77Z"/></g></g></svg>