<svg xmlns="http://www.w3.org/2000/svg" viewBox="0 0 25 24.8"><defs><style>.cls-1{fill:#f24130;}</style></defs><title>Ресурс 3</title><g id="Слой_2" data-name="Слой 2"><g id="Слой_1-2" data-name="Слой 1"><path class="cls-1" d="M7.32,7.27H17.68V17.54H7.32Z"/><path class="cls-1" d="M24.27,10.22a.73.73,0,1,0,0-1.45h-2.2V7.32h2.2a.73.73,0,1,0,0-1.46h-2.2V4.6a1.71,1.71,0,0,0-1.71-1.69H19.09V.73a.73.73,0,0,0-1.46,0V2.91H16.16V.73a.73.73,0,0,0-1.46,0V2.91H13.23V.73a.73.73,0,0,0-1.46,0V2.91H10.3V.73a.73.73,0,0,0-1.46,0V2.91H7.37V.73a.73.73,0,1,0-1.46,0V2.91H4.64A1.71,1.71,0,0,0,2.93,4.6V5.86H.73a.73.73,0,0,0,0,1.46h2.2V8.77H.73a.73.73,0,1,0,0,1.45h2.2v1.46H.73A.73.73,0,0,0,0,12.4a.73.73,0,0,0,.73.73h2.2v1.45H.73A.73.73,0,0,0,.73,16h2.2v1.45H.73a.73.73,0,1,0,0,1.45h2.2V20.2a1.71,1.71,0,0,0,1.71,1.7H5.91v2.18a.73.73,0,0,0,1.46,0V21.9H8.84v2.18a.73.73,0,0,0,1.46,0V21.9h1.47v2.18a.73.73,0,0,0,1.46,0V21.9H14.7v2.18a.73.73,0,0,0,1.46,0V21.9h1.47v2.18a.73.73,0,0,0,1.46,0V21.9h1.27a1.71,1.71,0,0,0,1.71-1.7V18.94h2.2a.73.73,0,1,0,0-1.45h-2.2V16h2.2a.73.73,0,0,0,0-1.46h-2.2V13.13h2.2A.73.73,0,0,0,25,12.4a.73.73,0,0,0-.73-.72h-2.2V10.22Zm-5.13,8a.73.73,0,0,1-.73.73H6.59a.73.73,0,0,1-.73-.73V6.54a.73.73,0,0,1,.73-.73H18.41a.73.73,0,0,1,.73.73Z"/></g></g></svg>