<svg xmlns="http://www.w3.org/2000/svg" viewBox="0 0 241.25 60.92"><defs><style>.cls-1{fill:#b8b8b8;stroke:#666;}.cls-1,.cls-2{stroke-miterlimit:10;}.cls-2{fill:red;stroke:#c00;}.cls-3{font-size:10px;}.cls-3,.cls-8{font-family:MyriadPro-Regular, Myriad Pro;}.cls-4{font-size:30px;font-family:NimbusSanL-Reg, Nimbus Sans L;}.cls-5{letter-spacing:-0.02em;}.cls-6{letter-spacing:-0.01em;}.cls-7{letter-spacing:0em;}.cls-8{font-size:9px;fill:#369;letter-spacing:0.15em;}.cls-9{letter-spacing:0.06em;}.cls-10{letter-spacing:0.15em;}.cls-11{letter-spacing:0.16em;}.cls-12{letter-spacing:0.14em;}</style></defs><title>Ресурс 2</title><g id="Слой_2" data-name="Слой 2"><g id="Слой_1-2" data-name="Слой 1"><polygon class="cls-1" points="25.01 8 6.52 39.14 43.5 39.14 25.01 8"/><rect x="24.75" y="14" width="0.5" height="6.5"/><rect x="15.87" y="28.87" width="0.5" height="9.21" transform="translate(-2.28 65.76) rotate(-124.62)"/><rect x="33.87" y="28.87" width="0.5" height="9.21" transform="translate(-12.51 44) rotate(-57.17)"/><circle class="cls-2" cx="25" cy="7" r="6.5"/><circle class="cls-2" cx="43" cy="39" r="6.5"/><circle class="cls-2" cx="7" cy="39" r="6.5"/><circle class="cls-2" cx="25" cy="27" r="6.5"/><text class="cls-3" transform="translate(22.67 10)">P</text><text class="cls-3" transform="translate(22.67 30)">P</text><text class="cls-3" transform="translate(4.67 42)">P</text><text class="cls-3" transform="translate(40.67 42)">P</text><text class="cls-4" transform="translate(60.25 43.5)"><tspan class="cls-5">F</tspan><tspan class="cls-6" x="17.67" y="0">O</tspan><tspan x="40.71" y="0">S</tspan><tspan class="cls-5" x="60.72" y="0">F</tspan><tspan x="78.39" y="0">O</tspan><tspan class="cls-7" x="101.73" y="0">Q</tspan><tspan x="124.95" y="0">UIM</tspan></text><text class="cls-8" transform="translate(0 58.67)">PHOSPHORUS AND SULFUR SPECIA<tspan class="cls-9" x="170.29" y="0">L</tspan><tspan class="cls-10" x="175.09" y="0">TIES EXPE</tspan><tspan class="cls-11" x="223.42" y="0">R</tspan><tspan class="cls-12" x="229.7" y="0">T</tspan><tspan x="235.46" y="0">S</tspan></text></g></g></svg>